<svg width="66" height="63" viewBox="0 0 66 63" fill="none" xmlns="http://www.w3.org/2000/svg">
<path d="M33.0914 15.3657C22.0259 15.3657 13.0234 24.1884 13.0234 35.0332C13.0234 45.8779 22.0259 54.7007 33.0914 54.7007C44.1569 54.7007 53.1594 45.8779 53.1594 35.0332C53.1594 24.1884 44.1568 15.3657 33.0914 15.3657ZM33.0914 52.2398C23.4111 52.2398 15.5356 44.5209 15.5356 35.0332C15.5356 25.5454 23.411 17.8267 33.0914 17.8267C42.7718 17.8267 50.6472 25.5454 50.6472 35.0332C50.6472 44.5209 42.7717 52.2398 33.0914 52.2398Z" fill="#021B58"/>
<path d="M53.272 15.2549C48.8561 10.9269 43.2478 8.19197 37.173 7.34479C37.6654 6.60023 37.9516 5.71319 37.9516 4.76179C37.9516 2.13609 35.7718 0 33.0925 0C30.413 0 28.2332 2.13609 28.2332 4.76179C28.2332 5.71319 28.5194 6.60023 29.0118 7.34479C22.9371 8.19197 17.3288 10.9268 12.9129 15.2549C7.52294 20.5374 4.55469 27.5609 4.55469 35.0314C4.55469 42.502 7.52307 49.5255 12.9129 54.8081C18.303 60.0907 25.4695 63 33.0925 63C40.7154 63 47.8819 60.0907 53.272 54.808C58.662 49.5254 61.6303 42.5019 61.6303 35.0313C61.6303 27.5608 58.662 20.5373 53.272 15.2549ZM57.658 36.2618H59.0883C58.791 42.3668 56.2935 47.9164 52.3578 52.1637L51.351 51.1775C50.8604 50.6972 50.0653 50.6972 49.5746 51.1775C49.0841 51.658 49.0841 52.4372 49.5746 52.9178L50.5822 53.9049C46.2474 57.7669 40.5817 60.218 34.3484 60.5098V59.096C34.3484 58.4165 33.7859 57.8655 33.0923 57.8655C32.3986 57.8655 31.8362 58.4165 31.8362 59.096V60.5098C25.6029 60.218 19.9372 57.7669 15.6025 53.9049L16.6101 52.9178C17.1006 52.4373 17.1006 51.6581 16.6101 51.1775C16.1196 50.6972 15.3242 50.6972 14.8336 51.1775L13.8269 52.1637C9.89117 47.9164 7.39369 42.3669 7.0965 36.2618H8.52681C9.22054 36.2618 9.78289 35.7108 9.78289 35.0313C9.78289 34.3519 9.22054 33.8008 8.52681 33.8008H7.09663C7.39394 27.6959 9.89129 22.1463 13.827 17.899L14.8337 18.8852C15.0791 19.1254 15.4005 19.2456 15.7219 19.2456C16.0433 19.2456 16.3649 19.1254 16.6101 18.8852C17.1006 18.4047 17.1006 17.6256 16.6101 17.145L15.6025 16.1579C19.9372 12.2958 25.603 9.84486 31.8364 9.55311V10.9669C31.8364 11.6464 32.3987 12.1974 33.0925 12.1974C33.7861 12.1974 34.3485 11.6464 34.3485 10.9669V9.55311C40.5819 9.84486 46.2477 12.2959 50.5823 16.158L49.5747 17.1451C49.0842 17.6256 49.0842 18.4047 49.5747 18.8854C49.82 19.1255 50.1414 19.2458 50.4629 19.2458C50.7843 19.2458 51.1057 19.1255 51.351 18.8854L52.3579 17.899C56.2936 22.1463 58.7911 27.6959 59.0883 33.8008H57.658C56.9644 33.8008 56.4019 34.3519 56.4019 35.0313C56.4019 35.7108 56.9644 36.2618 57.658 36.2618ZM30.7453 4.76179C30.7453 3.49318 31.7982 2.46094 33.0925 2.46094C34.3867 2.46094 35.4396 3.49318 35.4396 4.76179C35.4396 6.03065 34.3867 7.06277 33.0925 7.06277C31.7982 7.06277 30.7453 6.03065 30.7453 4.76179Z" fill="#021B58"/>
<path d="M41.7722 33.8103H36.8398C36.4465 32.6647 35.52 31.7571 34.3506 31.372V23.5323C34.3506 22.8528 33.7882 22.3018 33.0945 22.3018C32.4008 22.3018 31.8385 22.8528 31.8385 23.5323V31.372C30.2743 31.8872 29.1445 33.3372 29.1445 35.0407C29.1445 37.1744 30.9165 38.9102 33.0945 38.9102C34.8337 38.9102 36.3139 37.8034 36.8398 36.2712H41.7722C42.4658 36.2712 43.0283 35.7202 43.0283 35.0407C43.0283 34.3613 42.4658 33.8103 41.7722 33.8103ZM33.0945 36.4493C32.3017 36.4493 31.6567 35.8174 31.6567 35.0407C31.6567 34.2641 32.3017 33.6323 33.0945 33.6323C33.8874 33.6323 34.5324 34.2642 34.5324 35.0407C34.5324 35.8175 33.8874 36.4493 33.0945 36.4493Z" fill="#021B58"/>
</svg>
