<svg width="65" height="63" viewBox="0 0 65 63" fill="none" xmlns="http://www.w3.org/2000/svg">
<g clip-path="url(#clip0_1151_572)">
<path d="M11.3515 48.7203C10.448 48.7203 9.57936 48.9405 8.80874 49.3538C4.7493 44.2743 2.52114 37.9643 2.52114 31.5C2.52114 15.4876 15.8665 2.46094 32.2706 2.46094C34.2649 2.46094 36.2582 2.65464 38.1953 3.03676C38.8768 3.17134 39.5426 2.74068 39.6804 2.07449C39.8183 1.40831 39.3771 0.75943 38.6946 0.624367C36.5935 0.210045 34.4323 0 32.2706 0C23.651 0 15.5469 3.2766 9.45183 9.22611C3.35677 15.1756 0 23.0862 0 31.5C0 38.5776 2.46205 45.4846 6.94447 51.0217C6.36737 51.8633 6.05715 52.8525 6.05715 53.8883C6.05715 55.2687 6.60815 56.5665 7.60824 57.5422C8.60783 58.5184 9.93734 59.0563 11.3515 59.0563C12.7658 59.0563 14.0953 58.5184 15.0953 57.5422C16.0954 56.5665 16.646 55.2682 16.646 53.8878C16.646 52.5079 16.0954 51.2096 15.0953 50.2339C14.0953 49.2577 12.7658 48.7203 11.3515 48.7203ZM13.3123 55.8022C12.7889 56.3137 12.0921 56.5953 11.3515 56.5953C10.611 56.5953 9.91469 56.3137 9.39077 55.8022C8.86684 55.2908 8.57829 54.6112 8.57829 53.8883C8.57829 53.1649 8.86684 52.4853 9.39077 51.9739C9.9142 51.4624 10.611 51.1813 11.3515 51.1813C12.0921 51.1813 12.7884 51.4629 13.3123 51.9739C13.8363 52.4853 14.1248 53.1649 14.1248 53.8883C14.1248 54.6112 13.8363 55.2908 13.3123 55.8022Z" fill="#012E6F"/>
<path d="M57.5961 11.977C58.9665 9.97026 58.7464 7.2267 56.9338 5.45742C55.9337 4.4817 54.6042 3.94385 53.19 3.94385C51.7758 3.94385 50.4463 4.4817 49.4462 5.45742C48.4461 6.43362 47.8956 7.73138 47.8956 9.11182C47.8956 10.4922 48.4461 11.79 49.4462 12.7662C50.4463 13.7424 51.7758 14.2798 53.19 14.2798C54.0936 14.2798 54.9622 14.0596 55.7328 13.6463C59.7923 18.7263 62.0204 25.0358 62.0204 31.5001C62.0204 47.5125 48.6751 60.5392 32.2709 60.5392C30.2963 60.5392 28.3218 60.3493 26.4028 59.9744C25.7204 59.8413 25.0561 60.2734 24.9192 60.9395C24.7828 61.6062 25.2255 62.2541 25.908 62.3877C27.9894 62.7939 30.1304 63.0001 32.2709 63.0001C40.8906 63.0001 48.9947 59.7235 55.0897 53.774C61.1848 47.8245 64.5416 39.9139 64.5416 31.5001C64.5416 24.422 62.079 17.5146 57.5961 11.977ZM51.2292 11.0263C50.7053 10.5148 50.4167 9.8352 50.4167 9.11182C50.4167 8.38892 50.7053 7.70927 51.2292 7.19786C51.7527 6.68645 52.4494 6.40479 53.19 6.40479C53.9306 6.40479 54.6274 6.68645 55.1513 7.19786C56.2321 8.25337 56.2321 9.97074 55.1513 11.0263C54.6274 11.5372 53.9306 11.8188 53.19 11.8188C52.4489 11.8188 51.7527 11.5372 51.2292 11.0263Z" fill="#012E6F"/>
<path d="M27.0707 52.6641C27.0707 53.3437 27.6355 53.8945 28.3312 53.8945H36.2133C36.9095 53.8945 37.4738 53.3437 37.4738 52.6641V50.2786C39.1313 49.8431 40.7159 49.2019 42.2049 48.3646L43.9303 50.0488C44.1667 50.2795 44.4872 50.4093 44.8221 50.4093C45.1559 50.4093 45.477 50.2795 45.7134 50.0484L51.2845 44.6064C51.7764 44.1258 51.7764 43.3466 51.2845 42.8665L49.5611 41.1842C50.4188 39.7307 51.0757 38.1839 51.5218 36.5661H53.9563C54.6526 36.5661 55.2169 36.0152 55.2169 35.3356V27.6418C55.2169 26.9622 54.6526 26.4113 53.9563 26.4113H51.5213C51.0752 24.7939 50.4188 23.2472 49.5611 21.7937L51.2751 20.1206C51.5115 19.8899 51.6444 19.5765 51.6444 19.2501C51.6439 18.9237 51.511 18.6104 51.2746 18.3796L45.6991 12.9416C45.2072 12.4614 44.409 12.4614 43.9165 12.942L42.2049 14.6133C40.7159 13.776 39.1313 13.1348 37.4738 12.6993V10.3359C37.4738 9.6563 36.9095 9.10547 36.2133 9.10547H28.3312C27.6355 9.10547 27.0707 9.6563 27.0707 10.3359V12.6998C25.4137 13.1348 23.8291 13.776 22.3401 14.6133L20.628 12.942C20.1361 12.4619 19.3379 12.4614 18.8454 12.9416L13.2704 18.3801C13.0335 18.6108 12.9006 18.9237 12.9006 19.2501C12.9006 19.5765 13.0335 19.8899 13.2699 20.1206L14.984 21.7937C14.1262 23.2472 13.4693 24.7935 13.0232 26.4113H10.5931C9.89686 26.4113 9.33256 26.9622 9.33256 27.6413L9.32813 35.3351C9.32763 35.6615 9.46058 35.9749 9.69694 36.2056C9.9333 36.4363 10.2539 36.5661 10.5887 36.5661H13.0232C13.4693 38.1839 14.1262 39.7307 14.984 41.1842L13.2605 42.8665C12.7686 43.3466 12.7681 44.1258 13.2605 44.6064L18.8317 50.0484C19.068 50.2791 19.3886 50.4093 19.7229 50.4093H19.7234C20.0578 50.4093 20.3783 50.2795 20.6147 50.0488L22.3396 48.3646C23.8291 49.2019 25.4137 49.8431 27.0707 50.2786V52.6641ZM22.834 45.7768C22.3352 45.462 21.6788 45.5302 21.2583 45.9402L19.7234 47.4384L15.9343 43.7369L17.4677 42.2397C17.8877 41.8297 17.9576 41.189 17.6351 40.7021C16.4922 38.9756 15.6886 37.0833 15.2474 35.077C15.1223 34.5103 14.6092 34.1051 14.0149 34.1051H11.8498L11.8527 28.8723H14.0149C14.6092 28.8723 15.1223 28.4676 15.2474 27.9004C15.6886 25.8946 16.4922 24.0023 17.6351 22.2758C17.9576 21.7889 17.8877 21.1482 17.4677 20.7382L15.9442 19.2506L19.7362 15.552L21.2583 17.0381C21.6788 17.4481 22.3347 17.5159 22.834 17.2016C24.6022 16.086 26.5408 15.3016 28.5962 14.8709C29.1767 14.7488 29.5918 14.2475 29.5918 13.6678V11.5664H34.9527V13.6673C34.9527 14.2475 35.3673 14.7488 35.9484 14.8704C38.0032 15.3016 39.9423 16.0855 41.7105 17.2011C42.2094 17.5159 42.8657 17.4481 43.2858 17.0377L44.8083 15.552L48.6004 19.2506L47.0768 20.7377C46.6563 21.1482 46.5869 21.7889 46.9094 22.2758C48.0523 24.0023 48.8554 25.8946 49.2971 27.9004C49.4217 28.4676 49.9353 28.8723 50.5296 28.8723H52.6957V34.1051H50.5296C49.9353 34.1051 49.4222 34.5103 49.2971 35.077C48.8559 37.0828 48.0523 38.9756 46.9094 40.7016C46.5869 41.189 46.6568 41.8297 47.0768 42.2397L48.6102 43.7364L44.8211 47.4379L43.2863 45.9402C42.8657 45.5297 42.2094 45.462 41.7105 45.7768C39.9418 46.8924 38.0032 47.6763 35.9484 48.1075C35.3673 48.2296 34.9527 48.7304 34.9527 49.3106V51.4336H29.5918V49.3106C29.5918 48.7309 29.1767 48.2296 28.5962 48.1075C26.5413 47.6768 24.6027 46.8924 22.834 45.7768Z" fill="#012E6F"/>
<path d="M42.6874 31.4996C42.6874 25.8932 38.0149 21.3323 32.2714 21.3323C26.528 21.3323 21.8555 25.8932 21.8555 31.4996C21.8555 37.1059 26.528 41.6668 32.2714 41.6668C38.0149 41.6668 42.6874 37.1059 42.6874 31.4996ZM24.3766 31.4996C24.3766 27.2501 27.918 23.7933 32.2714 23.7933C36.6248 23.7933 40.1663 27.2506 40.1663 31.4996C40.1663 35.7485 36.6248 39.2059 32.2714 39.2059C27.918 39.2059 24.3766 35.749 24.3766 31.4996Z" fill="#012E6F"/>
<path d="M43.8778 4.65373C44.2096 4.65373 44.5346 4.52203 44.769 4.29324C45.0034 4.063 45.1383 3.74577 45.1383 3.42181C45.1383 3.09978 45.0039 2.78207 44.769 2.55183C44.5346 2.32304 44.2096 2.19135 43.8778 2.19135C43.5449 2.19135 43.2214 2.32304 42.987 2.55183C42.7521 2.78207 42.6172 3.09834 42.6172 3.42181C42.6172 3.74673 42.7521 4.063 42.987 4.29324C43.2214 4.52203 43.5449 4.65373 43.8778 4.65373Z" fill="#012E6F"/>
<path d="M20.7176 58.3685C20.3862 58.3685 20.0607 58.5002 19.8263 58.729C19.592 58.9578 19.457 59.2755 19.457 59.599C19.457 59.9239 19.592 60.2402 19.8263 60.469C20.0607 60.6978 20.3862 60.8295 20.7176 60.8295C21.049 60.8295 21.3745 60.6978 21.6089 60.469C21.8433 60.2402 21.9782 59.9225 21.9782 59.599C21.9782 59.2755 21.8433 58.9578 21.6089 58.729C21.3745 58.5002 21.049 58.3685 20.7176 58.3685Z" fill="#012E6F"/>
</g>
<defs>
<clipPath id="clip0_1151_572">
<rect width="64.5413" height="63" fill="white"/>
</clipPath>
</defs>
</svg>
