<svg width="65" height="63" viewBox="0 0 65 63" fill="none" xmlns="http://www.w3.org/2000/svg">
<path d="M64.8007 38.2487L59.7336 29.5876C59.4921 29.1749 59.005 28.915 58.4728 28.915H32.913H7.35291C6.82072 28.915 6.33365 29.1749 6.09217 29.5876L1.02505 38.2487C0.80182 38.6305 0.822474 39.0856 1.07966 39.4507C1.33684 39.8159 1.79363 40.0383 2.28564 40.0383H4.0514V61.7689C4.0514 62.4487 4.68474 63 5.46605 63H60.3553C61.1366 63 61.77 62.4487 61.77 61.7689V40.0384H63.5398C64.032 40.0384 64.4888 39.8159 64.7458 39.4508C65.0033 39.0856 65.0239 38.6305 64.8007 38.2487ZM57.6057 31.3772L61.2324 37.5762H38.8473L35.2206 31.3772H57.6057ZM8.22023 31.3772H30.6053L26.9786 37.5762H4.5935L8.22023 31.3772ZM58.941 60.5379H34.3277V53.7149C34.3277 53.0351 33.6943 52.4838 32.913 52.4838C32.1317 52.4838 31.4984 53.0351 31.4984 53.7149V60.5379H6.88098V40.0384H27.8459C28.3781 40.0384 28.8652 39.7787 29.1066 39.3659L31.4984 35.2776V42.6599C31.4984 43.3397 32.1317 43.891 32.913 43.891C33.6943 43.891 34.3277 43.3397 34.3277 42.6599V35.2776L36.7194 39.3659C36.9609 39.7787 37.4479 40.0384 37.9801 40.0384H58.941V60.5379Z" fill="#021B58"/>
<path d="M20.8176 53.7964H12.7623C11.981 53.7964 11.3477 54.3477 11.3477 55.0275C11.3477 55.7073 11.981 56.2586 12.7623 56.2586H20.8176C21.5989 56.2586 22.2322 55.7073 22.2322 55.0275C22.2322 54.3477 21.5989 53.7964 20.8176 53.7964Z" fill="#021B58"/>
<path d="M32.9117 25.2948C40.9163 25.2948 47.4287 19.6204 47.4287 12.6457C47.4286 5.67283 40.9163 0 32.9117 0C24.9048 0 18.3906 5.67283 18.3906 12.6457C18.3906 19.6204 24.9046 25.2948 32.9117 25.2948ZM32.9117 2.46217C39.3564 2.46217 44.5995 7.03047 44.5995 12.6457C44.5995 18.2629 39.3564 22.8327 32.9117 22.8327C26.4648 22.8327 21.2199 18.2629 21.2199 12.6457C21.2199 7.03047 26.4647 2.46217 32.9117 2.46217Z" fill="#021B58"/>
<path d="M26.5702 14.4922L30.3356 17.2698C30.592 17.459 30.9166 17.5618 31.2503 17.5618C31.2904 17.5618 31.3308 17.5603 31.3711 17.5574C31.7465 17.5293 32.0935 17.3722 32.3353 17.1207L39.4213 9.75076C39.9226 9.2294 39.8433 8.45296 39.2441 8.01654C38.6449 7.5805 37.7528 7.64932 37.2515 8.1708L31.0791 14.5905L28.3999 12.614C27.8039 12.1744 26.9111 12.2381 26.4061 12.757C25.9006 13.2758 25.9742 14.0525 26.5702 14.4922Z" fill="#021B58"/>
<path d="M5.12168 13.8767H11.2423C12.0236 13.8767 12.6569 13.3254 12.6569 12.6456C12.6569 11.9658 12.0236 11.4146 11.2423 11.4146H5.12168C4.34037 11.4146 3.70703 11.9658 3.70703 12.6456C3.70703 13.3254 4.34037 13.8767 5.12168 13.8767Z" fill="#021B58"/>
<path d="M4.46198 5.30993L10.5826 8.11912C10.7931 8.21576 11.0187 8.26156 11.2414 8.26156C11.7493 8.26156 12.2404 8.02285 12.4939 7.60453C12.8583 7.00315 12.5937 6.25848 11.9026 5.94135L5.78184 3.13216C5.09107 2.81504 4.23507 3.04525 3.87066 3.64675C3.50624 4.24813 3.77092 4.99281 4.46198 5.30993Z" fill="#021B58"/>
<path d="M3.87028 21.6431C4.12364 22.0617 4.61481 22.3007 5.12309 22.3007C5.34533 22.3007 5.57096 22.2551 5.78118 22.1587L11.9018 19.353C12.593 19.0362 12.8582 18.2916 12.4941 17.6901C12.13 17.0885 11.2744 16.8578 10.5832 17.1745L4.46259 19.9802C3.77139 20.297 3.50629 21.0416 3.87028 21.6431Z" fill="#021B58"/>
<path d="M54.5787 13.8767H60.6993C61.4806 13.8767 62.1139 13.3254 62.1139 12.6456C62.1139 11.9658 61.4806 11.4146 60.6993 11.4146H54.5787C53.7974 11.4146 53.1641 11.9658 53.1641 12.6456C53.1641 13.3254 53.7974 13.8767 54.5787 13.8767Z" fill="#021B58"/>
<path d="M54.5801 8.26166C54.8026 8.26166 55.0284 8.21586 55.2389 8.11922L61.3595 5.31002C62.0505 4.9929 62.3152 4.24822 61.9508 3.64684C61.5863 3.04546 60.7307 2.81488 60.0396 3.13225L53.919 5.94144C53.228 6.25857 52.9633 7.00325 53.3277 7.60463C53.5812 8.02295 54.0721 8.26166 54.5801 8.26166Z" fill="#021B58"/>
<path d="M53.9197 19.3531L60.0403 22.1588C60.2506 22.2552 60.4761 22.3008 60.6984 22.3008C61.2066 22.3008 61.6978 22.0619 61.9512 21.6432C62.3153 21.0417 62.0501 20.2971 61.3589 19.9803L55.2383 17.1746C54.5469 16.8577 53.6915 17.0884 53.3274 17.6902C52.9632 18.2917 53.2285 19.0363 53.9197 19.3531Z" fill="#021B58"/>
<path d="M32.9147 46.9558C32.1333 46.9558 31.5 47.5071 31.5 48.1869V48.1939C31.5 48.8737 32.1333 49.4215 32.9147 49.4215C33.696 49.4215 34.3293 48.8668 34.3293 48.187C34.3293 47.5072 33.696 46.9558 32.9147 46.9558Z" fill="#021B58"/>
</svg>
