<svg width="56" height="59" viewBox="0 0 56 59" fill="none" xmlns="http://www.w3.org/2000/svg">
<path d="M48.0709 29.5C46.3417 26.8491 42.6759 26.1014 39.9784 27.8007C37.2809 29.5 36.52 33.1025 38.2492 35.7535C39.0792 37.0449 40.3934 37.9286 41.915 38.2684C42.33 38.3364 42.745 38.4044 43.16 38.4044C44.2667 38.4044 45.3734 38.0645 46.3417 37.4528C47.6559 36.6371 48.555 35.3456 48.9009 33.8502C49.1775 32.2869 48.9009 30.7915 48.0709 29.5ZM47.5175 33.5104C47.2409 34.6659 46.5492 35.6175 45.5809 36.2972C44.6125 36.909 43.3675 37.1809 42.1917 36.909C41.0159 36.6371 40.0475 35.9574 39.3559 35.0058C38.0417 32.9666 38.595 30.2477 40.67 28.9562C41.4309 28.4804 42.2609 28.2765 43.0909 28.2765C44.5434 28.2765 45.9959 28.9562 46.8259 30.3157C47.5175 31.1993 47.7942 32.3548 47.5175 33.5104ZM29.6033 39.22C28.0817 39.22 26.8367 40.4436 26.8367 41.9389C26.8367 42.5507 27.0442 43.0945 27.39 43.5703L24.2083 47.4447C23.8625 47.2408 23.3783 47.1048 22.9633 47.1048C22.41 47.1048 21.9258 47.2408 21.5108 47.5127L18.3292 43.9101C18.6058 43.5023 18.8133 42.9585 18.8133 42.3468C18.8133 40.8514 17.5683 39.6279 16.0467 39.6279C14.525 39.6279 13.28 40.8514 13.28 42.3468C13.28 42.8906 13.4183 43.4343 13.7642 43.8422L10.3058 47.3767C10.0292 47.2408 9.68334 47.2408 9.40667 47.2408C8.57667 47.2408 7.81584 47.5806 7.33167 48.1924C6.8475 48.7362 6.64 49.4159 6.64 50.1636C6.70917 50.9113 7.055 51.523 7.60834 51.9988C8.0925 52.4067 8.78417 52.6786 9.40667 52.6786C10.2367 52.6786 10.9975 52.3387 11.4817 51.727C12.3808 50.7074 12.3808 49.28 11.5508 48.2604L14.94 44.7938C15.2858 44.9297 15.7008 45.0657 16.1158 45.0657C16.5308 45.0657 16.8767 44.9977 17.2225 44.7938L20.4733 48.6002C20.2658 48.9401 20.1275 49.4159 20.1275 49.8237C20.1275 51.3191 21.3725 52.5426 22.8942 52.5426C24.4158 52.5426 25.6608 51.3191 25.6608 49.8237C25.6608 49.28 25.5225 48.8041 25.2458 48.3963L28.4967 44.4539C28.8425 44.5899 29.1883 44.6578 29.5342 44.6578C31.0558 44.6578 32.3008 43.4343 32.3008 41.9389C32.37 40.4436 31.125 39.22 29.6033 39.22ZM10.375 50.7074C10.0983 50.9793 9.75251 51.1152 9.40667 51.1152C9.13 51.1152 8.78417 51.0472 8.57667 50.7753C8.02334 50.2995 8.02334 49.5518 8.43834 49.0081C8.715 48.7362 9.06084 48.6002 9.40667 48.6002C9.68334 48.6002 10.0292 48.6682 10.2367 48.9401C10.79 49.4159 10.8592 50.1636 10.375 50.7074ZM16.1158 43.5703C15.4242 43.5703 14.8708 43.0265 14.8708 42.3468C14.8708 41.667 15.4242 41.1233 16.1158 41.1233C16.8075 41.1233 17.3608 41.667 17.3608 42.3468C17.3608 43.0265 16.8075 43.5703 16.1158 43.5703ZM22.9633 51.0472C22.2717 51.0472 21.7183 50.5035 21.7183 49.8237C21.7183 49.144 22.2717 48.6002 22.9633 48.6002C23.655 48.6002 24.2083 49.144 24.2083 49.8237C24.2083 50.5035 23.655 51.0472 22.9633 51.0472ZM29.6033 43.1624C28.9117 43.1624 28.3583 42.6187 28.3583 41.9389C28.3583 41.2592 28.9117 40.7154 29.6033 40.7154C30.295 40.7154 30.8483 41.2592 30.8483 41.9389C30.9175 42.6187 30.295 43.1624 29.6033 43.1624ZM55.8867 47.6486L50.3534 39.22C53.3275 36.0253 53.8809 31.1993 51.3909 27.3929C50.3534 25.8295 48.97 24.674 47.3792 23.9263V2.99078C47.3792 1.35945 45.9959 0 44.3359 0C37.6267 0 11.8275 0 11.6892 0C10.9975 0 10.1675 0.951613 9.68334 1.35945L1.4525 9.44816C1.10667 9.78802 0.899167 10.1279 0.6225 10.4677C0.2075 11.1475 0 11.9631 0 12.7788V56.0092C0 57.6406 1.38333 59 3.04333 59C4.7725 59 13.4875 59 21.0958 59H44.3359C45.9959 59 47.3792 57.6406 47.3792 56.0092V43.4343L51.8059 50.1636C51.875 50.2995 52.0825 50.4355 52.2209 50.4355C52.29 50.4355 52.29 50.4355 52.3592 50.4355C52.4975 50.4355 52.6359 50.3675 52.705 50.2995L55.61 48.4643C56.025 48.3283 56.0942 47.9205 55.8867 47.6486ZM10.6517 3.39862V8.90438C10.6517 9.44816 10.1675 9.92396 9.61417 9.92396H4.01167L10.6517 3.39862ZM45.3734 56.0092C45.3734 56.553 44.8892 57.0288 44.3359 57.0288H31.125C25.315 57.0288 5.81 57.0288 3.1125 57.0288C2.55917 57.0288 2.075 56.553 2.075 56.0092V40.6475C2.075 28.0046 2.14417 12.0311 2.21333 11.8272H9.61417C11.2742 11.8272 12.6575 10.4677 12.6575 8.83641V2.03917C12.7958 2.03917 37.6267 1.9712 44.405 1.9712C44.9584 1.9712 45.4425 2.447 45.4425 2.99078V23.1786C42.9525 22.6348 40.1859 22.9747 37.8342 24.47C33.2692 27.3929 31.955 33.3744 34.9292 37.8606C36.7967 40.7154 39.9784 42.2788 43.2292 42.2788C43.99 42.2788 44.7509 42.2108 45.4425 42.0069V56.0092H45.3734ZM36.0359 37.1129C33.4767 33.2385 34.6525 28.0726 38.5259 25.6256C39.9092 24.7419 41.5 24.2661 43.0909 24.2661C45.8575 24.2661 48.6242 25.6256 50.215 28.0726C52.7742 31.947 51.5984 37.1129 47.725 39.5599C43.8517 42.0749 38.595 40.9873 36.0359 37.1129ZM52.6359 48.8721L47.725 41.3272L49.4542 40.2396L54.365 47.7846L52.6359 48.8721ZM14.8017 36.0933C18.9517 36.0933 22.2717 32.7627 22.2717 28.7523C22.2717 24.7419 18.8825 21.4113 14.8017 21.4113C10.7208 21.4113 7.33167 24.7419 7.33167 28.7523C7.33167 32.7627 10.7208 36.0933 14.8017 36.0933ZM14.8017 22.9747C17.7758 22.9747 20.2658 25.1498 20.6117 28.0046H15.4242L14.11 23.0426C14.3867 22.9747 14.5942 22.9747 14.8017 22.9747ZM12.5883 23.3825L14.0408 28.9562C14.11 29.2961 14.4558 29.568 14.8017 29.568H20.6117C20.1967 32.3548 17.7758 34.5979 14.8017 34.5979C11.5508 34.5979 8.92251 32.015 8.92251 28.8203C8.92251 26.3733 10.4442 24.2661 12.5883 23.3825ZM21.0958 20.1878H39.1484C39.5634 20.1878 39.84 19.9159 39.84 19.5081V6.59332C39.84 6.18548 39.5634 5.91359 39.1484 5.91359H35.69C35.275 5.91359 34.9984 6.18548 34.9984 6.59332V18.8283H32.5775V10.5357C32.5775 10.1279 32.3008 9.85599 31.8858 9.85599H28.4275C28.0125 9.85599 27.7358 10.1279 27.7358 10.5357V18.7604H25.315V14.5461C25.315 14.1382 25.0383 13.8664 24.6233 13.8664H21.165C20.75 13.8664 20.4733 14.1382 20.4733 14.5461V19.4401C20.4042 19.8479 20.75 20.1878 21.0958 20.1878ZM36.3817 7.27304H38.4567V18.8283H36.3817V7.27304ZM29.05 11.2154H31.125V18.7604H29.05V11.2154ZM21.7875 15.2258H23.8625V18.7604H21.7875V15.2258Z" fill="#021B58"/>
</svg>
