<svg width="80" height="70" viewBox="0 0 80 70" fill="none" xmlns="http://www.w3.org/2000/svg">
<path d="M79.7695 27.0744L77.2553 26.703H77.1742L40.9219 36.4342C40.8408 36.4342 40.8408 36.5085 40.7597 36.5085L39.7054 37.9199C39.7054 37.9942 39.6243 37.9942 39.6243 38.0685V40.2227C39.6243 40.297 39.6243 40.297 39.7054 40.3713L63.0626 69.1936L63.1437 69.2679L64.5224 69.9364H64.6035C64.7657 69.9364 64.8468 69.8621 64.8468 69.7136C64.8468 69.6393 64.8468 69.6393 64.8468 69.6393L64.5224 68.0793C64.5224 68.0793 64.5224 68.005 64.4413 68.005L40.5975 38.5142L41.5707 38.8856C41.6518 38.8856 41.6518 38.8856 41.7329 38.8856L77.9042 29.0801C77.9042 29.0801 77.9853 29.0801 77.9853 29.0058L79.8506 27.4458C79.9317 27.3716 79.9317 27.2973 79.9317 27.223C79.9317 27.1487 79.8506 27.0744 79.7695 27.0744Z" fill="white"/>
<path d="M46.9041 40.1762C46.9041 40.1762 46.9041 40.2506 46.9041 40.1762C46.8231 40.2506 46.8231 40.2506 46.742 40.2506V40.3249C46.742 40.3249 46.661 40.3249 46.661 40.3993C46.661 40.3993 46.661 40.4736 46.742 40.4736V40.548L62.0573 59.4352C62.1383 59.5095 62.2193 59.5095 62.2193 59.5095H62.3004C62.3814 59.4352 62.4624 59.3608 62.4624 59.2865L61.8142 56.3121C61.8142 56.3121 61.8142 56.2377 61.7331 56.2377L50.0644 41.7378L50.3885 41.8865H50.4696H50.5506L68.4589 37.0531C68.4589 37.0531 68.5399 37.0531 68.5399 36.9788L72.2674 33.7813C72.3485 33.707 72.3485 33.5583 72.3485 33.4839C72.2674 33.4095 72.1864 33.3352 72.0243 33.4095L46.9041 40.1762Z" fill="white"/>
<path d="M63.0571 41.4947C62.9761 41.4204 62.895 41.3461 62.7328 41.4204L55.841 43.2782C55.7599 43.2782 55.6788 43.4268 55.6788 43.5011C55.6788 43.5754 55.7599 43.724 55.841 43.724L56.7329 44.0213L59.7328 47.7368C59.8139 47.8111 59.895 47.8111 59.895 47.8111H59.9761C60.0572 47.7368 60.1382 47.6625 60.1382 47.5882L59.5707 44.7644L62.9761 41.8663C63.0571 41.7177 63.0571 41.569 63.0571 41.4947Z" fill="white"/>
<path d="M44.574 32.6794L69.7266 25.8642C69.8078 25.8642 69.8889 25.7161 69.8889 25.642C69.8889 25.5679 69.8078 25.4198 69.6455 25.4198L64.615 24.6049H64.5338L46.7648 29.42C46.6836 29.42 46.6836 29.494 46.6025 29.494L44.3306 32.309C44.2495 32.3831 44.2495 32.5312 44.3306 32.6053C44.3306 32.6053 44.4118 32.6794 44.574 32.6794C44.4929 32.6794 44.4929 32.6794 44.574 32.6794Z" fill="white"/>
<path d="M50.258 25.6857L57.0875 23.8249C57.1688 23.8249 57.2501 23.676 57.2501 23.6016C57.2501 23.5272 57.1688 23.3783 57.0062 23.3783L52.2906 22.634C52.2093 22.634 52.128 22.634 52.0467 22.7084L49.9328 25.3136C49.8515 25.388 49.8515 25.5369 49.9328 25.6113C50.0141 25.6857 50.0954 25.6857 50.258 25.6857C50.1767 25.6857 50.1767 25.6857 50.258 25.6857Z" fill="white"/>
<path d="M39.9725 46.7302C39.8915 46.7302 39.8104 46.7302 39.7293 46.8046L26.4314 63.9042C26.3503 63.9785 26.3503 64.1272 26.4314 64.2015C26.5125 64.2759 26.5936 64.2759 26.7558 64.2759L28.1342 63.6068L28.2153 63.5324L39.7293 48.7376V49.1093C39.7293 49.1837 39.7293 49.1837 39.8104 49.258L51.4866 63.6811L51.5676 63.7555L54.4867 65.168H54.5678C54.6489 65.168 54.7299 65.168 54.7299 65.0937C54.811 65.0193 54.811 64.8706 54.7299 64.7963L40.1347 46.8046C40.1347 46.7302 40.0536 46.7302 39.9725 46.7302Z" fill="white"/>
<path d="M39.9253 55.3769C39.8443 55.3769 39.7633 55.3769 39.6822 55.4511L37.089 58.789C37.0079 58.8632 37.0079 59.0115 37.089 59.0857C37.17 59.1599 37.3321 59.1599 37.4131 59.1599L38.7908 58.4923L38.8718 58.4181L39.6012 57.4538V57.7505C39.6012 57.8247 39.6822 57.8989 39.7633 57.9731L42.5996 59.3824H42.6807C42.7617 59.3824 42.8427 59.3824 42.8427 59.3082C42.9238 59.234 42.9238 59.0857 42.8427 59.0115L40.0064 55.5253C40.0874 55.4511 40.0064 55.3769 39.9253 55.3769Z" fill="white"/>
<path d="M35.8755 33.0388V7.50227L34.2532 10.3974L32.712 13.2183V28.956L16.7322 24.5761L12.6764 25.2442L7.2417 26.0608L36.6866 34.0781L35.8755 33.0388Z" fill="white"/>
<path d="M30.2034 26.1815V17.9292L28.5778 20.7543L27.5211 22.9103L25.3265 23.2821L19.8805 24.1742L31.0163 27.148L30.2034 26.1815Z" fill="white"/>
<path d="M51.2084 21.0166L49.667 18.1199V26.0672L51.2084 24.1361L52.2631 22.8734L51.2084 21.0166Z" fill="white"/>
<path d="M39.9299 0L38.3101 2.82338V35.8866L3.9687 26.5992L0 27.2679L4.04969 30.6856L35.8803 39.3044L33.6934 40.0474L6.4795 32.6917L6.31752 32.6174L9.23329 35.1436L13.202 38.5614L26.8899 42.2764L24.6221 43.0194L15.7128 40.6418L15.5508 40.5675L18.4666 43.0937L20.1675 44.5053L14.9839 69.6185L39.849 38.0413L39.444 38.1899L39.849 38.0413H39.9299L41.4688 36.1095V2.89768L39.9299 0Z" fill="white"/>
<path d="M43.9966 7.56585V32.9973L45.5276 31.0639L47.1392 29.2049V13.366L45.5276 10.4659L43.9966 7.56585Z" fill="white"/>
</svg>
